<svg xmlns="http://www.w3.org/2000/svg" xmlns:xlink="http://www.w3.org/1999/xlink" width="500" zoomAndPan="magnify" viewBox="0 0 375 374.999991" height="500" preserveAspectRatio="xMidYMid meet" version="1.0"><defs><g/><clipPath id="0a28062991"><path d="M 144.242188 89 L 230.492188 89 L 230.492188 172 L 144.242188 172 Z M 144.242188 89 " clip-rule="nonzero"/></clipPath><clipPath id="fdb73141ee"><path d="M 228.160156 123.78125 C 225.871094 123.089844 221.84375 122.316406 216.976562 122.019531 C 211.722656 112.175781 201.140625 110.085938 197.855469 109.671875 L 203.101562 104.699219 C 203.285156 104.773438 203.464844 104.847656 203.652344 104.910156 C 207.859375 106.285156 212.382812 103.992188 213.761719 99.785156 C 215.136719 95.574219 212.84375 91.050781 208.636719 89.675781 C 204.429688 88.300781 199.90625 90.59375 198.53125 94.800781 C 197.960938 96.539062 198.027344 98.328125 198.589844 99.929688 L 188.40625 109.570312 L 187.808594 109.570312 L 187.808594 109.574219 L 184.597656 109.574219 L 178.085938 102.789062 C 179.046875 99.433594 177.191406 95.886719 173.847656 94.792969 C 170.421875 93.671875 166.734375 95.542969 165.613281 98.96875 C 164.492188 102.394531 166.363281 106.082031 169.789062 107.203125 C 170.984375 107.589844 172.207031 107.613281 173.347656 107.335938 L 175.925781 110.023438 C 171.484375 110.949219 163.332031 113.734375 158.910156 121.960938 C 153.53125 122.199219 149.046875 123.035156 146.582031 123.78125 C 146.191406 123.800781 144.507812 124.023438 144.378906 126.523438 C 144.257812 128.800781 144.722656 130.113281 145.882812 130.777344 C 146.402344 131.070312 147.441406 132.902344 148.03125 136.542969 C 149.070312 143.007812 151.484375 147.417969 155.230469 149.75 C 156.183594 162.828125 162.75 172.289062 187.882812 171.550781 L 187.980469 171.546875 C 213.644531 172.300781 219.949219 162.421875 220.6875 148.910156 C 223.761719 146.429688 225.78125 142.300781 226.707031 136.542969 C 227.292969 132.898438 228.332031 131.070312 228.855469 130.777344 C 230.015625 130.113281 230.480469 128.804688 230.363281 126.523438 C 230.234375 124.023438 228.550781 123.800781 228.160156 123.78125 Z M 170.734375 118.652344 C 174.441406 114.53125 179.488281 114.25 180.328125 114.152344 L 188.183594 114.152344 L 188.183594 114.148438 L 196.042969 114.148438 C 196.878906 114.25 201.929688 114.53125 205.632812 118.648438 C 206.5 119.617188 207.328125 120.78125 208.074219 122.078125 C 205.664062 122.273438 203.367188 122.609375 201.21875 123.089844 C 191.789062 125.210938 187.972656 125.800781 187.367188 125.890625 C 186.761719 125.804688 182.964844 125.214844 173.519531 123.089844 C 171.832031 122.710938 170.058594 122.425781 168.210938 122.226562 C 168.980469 120.871094 169.832031 119.65625 170.734375 118.652344 Z M 162.714844 145.605469 C 159.671875 145.605469 157.664062 144.558594 156.199219 142.203125 C 154.746094 139.859375 154.253906 136.863281 154.046875 135.570312 C 153.601562 132.800781 152.902344 130.535156 151.964844 128.808594 C 154.082031 128.441406 157.59375 127.984375 161.867188 127.984375 C 165.609375 127.984375 169.082031 128.339844 172.1875 129.039062 C 174.988281 129.667969 177.539062 130.21875 179.78125 130.679688 C 179.234375 131.519531 178.867188 132.476562 178.714844 133.460938 C 177.089844 138.292969 175.550781 141.0625 173.574219 142.722656 C 171.496094 144.46875 168.34375 145.351562 163.359375 145.585938 C 163.140625 145.605469 162.925781 145.605469 162.714844 145.605469 Z M 207.425781 156.890625 C 204.863281 159.789062 198.929688 161.320312 190.253906 161.320312 C 189.585938 161.320312 188.890625 161.308594 188.1875 161.292969 C 187.484375 161.3125 186.789062 161.324219 186.121094 161.324219 L 186.117188 161.324219 C 177.445312 161.324219 171.503906 159.789062 168.945312 156.894531 C 167.769531 155.566406 166.824219 153.71875 166.105469 151.503906 C 176.429688 150.503906 180.945312 146.277344 184.707031 134.757812 L 184.75 134.621094 L 184.730469 134.476562 C 184.730469 134.476562 184.71875 134.179688 184.976562 133.894531 C 185.25 133.585938 185.890625 133.214844 187.371094 133.214844 C 188.824219 133.214844 189.464844 133.574219 189.746094 133.875 C 190.023438 134.171875 190.007812 134.476562 190.007812 134.476562 L 189.992188 134.621094 L 190.035156 134.757812 C 193.984375 146.847656 198.761719 150.90625 210.226562 151.632812 C 209.511719 153.792969 208.578125 155.589844 207.425781 156.890625 Z M 220.691406 135.589844 C 220.484375 136.871094 219.996094 139.863281 218.542969 142.203125 C 217.078125 144.554688 215.070312 145.605469 212.027344 145.605469 C 211.820312 145.605469 211.601562 145.601562 211.386719 145.589844 C 206.402344 145.355469 203.25 144.46875 201.171875 142.726562 C 199.199219 141.066406 197.65625 138.296875 196.03125 133.460938 C 195.878906 132.480469 195.507812 131.523438 194.960938 130.679688 C 197.203125 130.222656 199.753906 129.671875 202.558594 129.039062 C 205.664062 128.339844 209.136719 127.988281 212.878906 127.988281 C 217.152344 127.988281 220.664062 128.445312 222.777344 128.808594 C 221.839844 130.535156 221.140625 132.808594 220.691406 135.589844 Z M 220.691406 135.589844 " clip-rule="nonzero"/></clipPath><linearGradient x1="3176.292105" gradientTransform="matrix(0.0226407, 0, 0, 0.0226452, 144.359498, 89.275998)" y1="-394.862201" x2="683.522854" gradientUnits="userSpaceOnUse" y2="4051.984614" id="447a586f42"><stop stop-opacity="1" stop-color="rgb(20.385742%, 70.214844%, 53.901672%)" offset="0"/><stop stop-opacity="1" stop-color="rgb(20.28656%, 70.19043%, 54.064941%)" offset="0.015625"/><stop stop-opacity="1" stop-color="rgb(20.088196%, 70.140076%, 54.393005%)" offset="0.03125"/><stop stop-opacity="1" stop-color="rgb(19.889832%, 70.089722%, 54.719543%)" offset="0.046875"/><stop stop-opacity="1" stop-color="rgb(19.691467%, 70.040894%, 55.046082%)" offset="0.0625"/><stop stop-opacity="1" stop-color="rgb(19.493103%, 69.99054%, 55.37262%)" offset="0.078125"/><stop stop-opacity="1" stop-color="rgb(19.294739%, 69.940186%, 55.700684%)" offset="0.09375"/><stop stop-opacity="1" stop-color="rgb(19.096375%, 69.891357%, 56.027222%)" offset="0.109375"/><stop stop-opacity="1" stop-color="rgb(18.89801%, 69.841003%, 56.35376%)" offset="0.125"/><stop stop-opacity="1" stop-color="rgb(18.699646%, 69.792175%, 56.680298%)" offset="0.140625"/><stop stop-opacity="1" stop-color="rgb(18.501282%, 69.741821%, 57.006836%)" offset="0.15625"/><stop stop-opacity="1" stop-color="rgb(18.302917%, 69.691467%, 57.3349%)" offset="0.171875"/><stop stop-opacity="1" stop-color="rgb(18.104553%, 69.642639%, 57.661438%)" offset="0.1875"/><stop stop-opacity="1" stop-color="rgb(17.906189%, 69.592285%, 57.987976%)" offset="0.203125"/><stop stop-opacity="1" stop-color="rgb(17.709351%, 69.541931%, 58.314514%)" offset="0.21875"/><stop stop-opacity="1" stop-color="rgb(17.510986%, 69.493103%, 58.642578%)" offset="0.234375"/><stop stop-opacity="1" stop-color="rgb(17.312622%, 69.442749%, 58.969116%)" offset="0.25"/><stop stop-opacity="1" stop-color="rgb(17.114258%, 69.393921%, 59.295654%)" offset="0.265625"/><stop stop-opacity="1" stop-color="rgb(16.915894%, 69.343567%, 59.622192%)" offset="0.28125"/><stop stop-opacity="1" stop-color="rgb(16.717529%, 69.293213%, 59.94873%)" offset="0.296875"/><stop stop-opacity="1" stop-color="rgb(16.519165%, 69.244385%, 60.276794%)" offset="0.3125"/><stop stop-opacity="1" stop-color="rgb(16.320801%, 69.194031%, 60.603333%)" offset="0.328125"/><stop stop-opacity="1" stop-color="rgb(16.122437%, 69.145203%, 60.929871%)" offset="0.34375"/><stop stop-opacity="1" stop-color="rgb(15.924072%, 69.094849%, 61.256409%)" offset="0.359375"/><stop stop-opacity="1" stop-color="rgb(15.725708%, 69.044495%, 61.584473%)" offset="0.365287"/><stop stop-opacity="1" stop-color="rgb(15.626526%, 69.020081%, 61.747742%)" offset="0.375"/><stop stop-opacity="1" stop-color="rgb(15.527344%, 68.995667%, 61.911011%)" offset="0.390625"/><stop stop-opacity="1" stop-color="rgb(15.328979%, 68.945312%, 62.237549%)" offset="0.40625"/><stop stop-opacity="1" stop-color="rgb(15.130615%, 68.894958%, 62.564087%)" offset="0.421875"/><stop stop-opacity="1" stop-color="rgb(14.932251%, 68.84613%, 62.890625%)" offset="0.4375"/><stop stop-opacity="1" stop-color="rgb(14.733887%, 68.795776%, 63.218689%)" offset="0.453125"/><stop stop-opacity="1" stop-color="rgb(14.535522%, 68.746948%, 63.545227%)" offset="0.46875"/><stop stop-opacity="1" stop-color="rgb(14.337158%, 68.696594%, 63.871765%)" offset="0.484375"/><stop stop-opacity="1" stop-color="rgb(14.138794%, 68.64624%, 64.198303%)" offset="0.5"/><stop stop-opacity="1" stop-color="rgb(13.94043%, 68.597412%, 64.526367%)" offset="0.515625"/><stop stop-opacity="1" stop-color="rgb(13.742065%, 68.547058%, 64.852905%)" offset="0.53125"/><stop stop-opacity="1" stop-color="rgb(13.543701%, 68.496704%, 65.179443%)" offset="0.546875"/><stop stop-opacity="1" stop-color="rgb(13.345337%, 68.447876%, 65.505981%)" offset="0.5625"/><stop stop-opacity="1" stop-color="rgb(13.146973%, 68.397522%, 65.83252%)" offset="0.578125"/><stop stop-opacity="1" stop-color="rgb(12.948608%, 68.348694%, 66.160583%)" offset="0.59375"/><stop stop-opacity="1" stop-color="rgb(12.750244%, 68.29834%, 66.487122%)" offset="0.609375"/><stop stop-opacity="1" stop-color="rgb(12.55188%, 68.247986%, 66.81366%)" offset="0.625"/><stop stop-opacity="1" stop-color="rgb(12.353516%, 68.199158%, 67.140198%)" offset="0.634713"/><stop stop-opacity="1" stop-color="rgb(12.254333%, 68.174744%, 67.304993%)" offset="0.640625"/><stop stop-opacity="1" stop-color="rgb(12.155151%, 68.148804%, 67.468262%)" offset="0.65625"/><stop stop-opacity="1" stop-color="rgb(11.956787%, 68.099976%, 67.7948%)" offset="0.671875"/><stop stop-opacity="1" stop-color="rgb(11.758423%, 68.049622%, 68.121338%)" offset="0.6875"/><stop stop-opacity="1" stop-color="rgb(11.560059%, 67.999268%, 68.447876%)" offset="0.703125"/><stop stop-opacity="1" stop-color="rgb(11.361694%, 67.950439%, 68.774414%)" offset="0.71875"/><stop stop-opacity="1" stop-color="rgb(11.16333%, 67.900085%, 69.102478%)" offset="0.734375"/><stop stop-opacity="1" stop-color="rgb(10.964966%, 67.849731%, 69.429016%)" offset="0.75"/><stop stop-opacity="1" stop-color="rgb(10.766602%, 67.800903%, 69.755554%)" offset="0.765625"/><stop stop-opacity="1" stop-color="rgb(10.568237%, 67.750549%, 70.082092%)" offset="0.78125"/><stop stop-opacity="1" stop-color="rgb(10.369873%, 67.701721%, 70.410156%)" offset="0.796875"/><stop stop-opacity="1" stop-color="rgb(10.171509%, 67.651367%, 70.736694%)" offset="0.8125"/><stop stop-opacity="1" stop-color="rgb(9.973145%, 67.601013%, 71.063232%)" offset="0.828125"/><stop stop-opacity="1" stop-color="rgb(9.77478%, 67.552185%, 71.389771%)" offset="0.84375"/><stop stop-opacity="1" stop-color="rgb(9.576416%, 67.501831%, 71.716309%)" offset="0.859375"/><stop stop-opacity="1" stop-color="rgb(9.378052%, 67.451477%, 72.044373%)" offset="0.875"/><stop stop-opacity="1" stop-color="rgb(9.179688%, 67.402649%, 72.370911%)" offset="0.890625"/><stop stop-opacity="1" stop-color="rgb(8.981323%, 67.352295%, 72.697449%)" offset="0.90625"/><stop stop-opacity="1" stop-color="rgb(8.782959%, 67.303467%, 73.023987%)" offset="0.921875"/><stop stop-opacity="1" stop-color="rgb(8.584595%, 67.253113%, 73.352051%)" offset="0.9375"/><stop stop-opacity="1" stop-color="rgb(8.38623%, 67.202759%, 73.678589%)" offset="0.953125"/><stop stop-opacity="1" stop-color="rgb(8.187866%, 67.153931%, 74.005127%)" offset="0.96875"/><stop stop-opacity="1" stop-color="rgb(7.989502%, 67.103577%, 74.331665%)" offset="0.984375"/><stop stop-opacity="1" stop-color="rgb(7.791138%, 67.053223%, 74.658203%)" offset="1"/></linearGradient><clipPath id="087be188a5"><path d="M 177 150 L 196 150 L 196 157 L 177 157 Z M 177 150 " clip-rule="nonzero"/></clipPath><clipPath id="3f52ca44c9"><path d="M 192.011719 151.433594 C 185.230469 155.027344 177.675781 153.535156 177.675781 153.535156 C 179.234375 154.203125 180.671875 155.789062 188.308594 156.523438 C 195.945312 157.261719 198.789062 147.84375 192.011719 151.433594 Z M 192.011719 151.433594 " clip-rule="nonzero"/></clipPath><linearGradient x1="2096.738646" gradientTransform="matrix(0.0226407, 0, 0, 0.0226452, 144.359498, 89.275998)" y1="2414.102063" x2="1696.421033" gradientUnits="userSpaceOnUse" y2="3128.227804" id="646db973f4"><stop stop-opacity="1" stop-color="rgb(12.969971%, 68.354797%, 66.123962%)" offset="0"/><stop stop-opacity="1" stop-color="rgb(12.905884%, 68.338013%, 66.227722%)" offset="0.0625"/><stop stop-opacity="1" stop-color="rgb(12.779236%, 68.305969%, 66.438293%)" offset="0.125"/><stop stop-opacity="1" stop-color="rgb(12.651062%, 68.273926%, 66.648865%)" offset="0.1875"/><stop stop-opacity="1" stop-color="rgb(12.524414%, 68.241882%, 66.85791%)" offset="0.25"/><stop stop-opacity="1" stop-color="rgb(12.39624%, 68.209839%, 67.068481%)" offset="0.3125"/><stop stop-opacity="1" stop-color="rgb(12.269592%, 68.177795%, 67.279053%)" offset="0.375"/><stop stop-opacity="1" stop-color="rgb(12.141418%, 68.145752%, 67.488098%)" offset="0.4375"/><stop stop-opacity="1" stop-color="rgb(12.014771%, 68.113708%, 67.698669%)" offset="0.443032"/><stop stop-opacity="1" stop-color="rgb(11.950684%, 68.09845%, 67.803955%)" offset="0.5"/><stop stop-opacity="1" stop-color="rgb(11.886597%, 68.081665%, 67.907715%)" offset="0.556968"/><stop stop-opacity="1" stop-color="rgb(11.824036%, 68.066406%, 68.013%)" offset="0.5625"/><stop stop-opacity="1" stop-color="rgb(11.759949%, 68.049622%, 68.118286%)" offset="0.625"/><stop stop-opacity="1" stop-color="rgb(11.631775%, 68.017578%, 68.328857%)" offset="0.6875"/><stop stop-opacity="1" stop-color="rgb(11.505127%, 67.985535%, 68.537903%)" offset="0.75"/><stop stop-opacity="1" stop-color="rgb(11.376953%, 67.953491%, 68.748474%)" offset="0.8125"/><stop stop-opacity="1" stop-color="rgb(11.250305%, 67.921448%, 68.95752%)" offset="0.875"/><stop stop-opacity="1" stop-color="rgb(11.122131%, 67.889404%, 69.168091%)" offset="0.9375"/><stop stop-opacity="1" stop-color="rgb(10.995483%, 67.857361%, 69.378662%)" offset="1"/></linearGradient></defs><g clip-path="url(#0a28062991)"><g clip-path="url(#fdb73141ee)"><path fill="url(#447a586f42)" d="M 144.257812 88.300781 L 144.257812 172.300781 L 230.480469 172.300781 L 230.480469 88.300781 Z M 144.257812 88.300781 " fill-rule="nonzero"/></g></g><g clip-path="url(#087be188a5)"><g clip-path="url(#3f52ca44c9)"><path fill="url(#646db973f4)" d="M 177.675781 147.84375 L 177.675781 157.261719 L 198.789062 157.261719 L 198.789062 147.84375 Z M 177.675781 147.84375 " fill-rule="nonzero"/></g></g><g fill="#737373" fill-opacity="1"><g transform="translate(100.553012, 214.507665)"><g><path d="M 35.460938 -42.53125 L 5.613281 -42.53125 L 3.984375 -33.484375 L 13.816406 -33.484375 L 7.914062 0 L 18.183594 0 L 24.085938 -33.484375 L 33.832031 -33.484375 Z M 35.460938 -42.53125 "/></g></g></g><g fill="#737373" fill-opacity="1"><g transform="translate(130.624354, 214.507665)"><g><path d="M 36.828125 -42.53125 L 20.945312 -11.957031 L 15.855469 -42.53125 L 5.0625 -42.53125 L 13.179688 0 L 24.785156 0 L 48.085938 -42.53125 Z M 36.828125 -42.53125 "/></g></g></g><g fill="#737373" fill-opacity="1"><g transform="translate(172.853528, 214.507665)"><g><path d="M 33.949219 -33.484375 L 35.578125 -42.53125 L 9.542969 -42.53125 L 2.035156 0 L 12.394531 0 L 15.390625 -16.8125 L 28.886719 -16.8125 L 30.457031 -25.746094 L 16.988281 -25.746094 L 18.355469 -33.484375 Z M 33.949219 -33.484375 "/></g></g></g><g fill="#737373" fill-opacity="1"><g transform="translate(204.001046, 214.507665)"><g><path d="M 1.078125 0 L 11.140625 0 L 19.054688 -44.683594 L 8.988281 -44.683594 Z M 1.078125 0 "/></g></g></g><g fill="#737373" fill-opacity="1"><g transform="translate(220.256666, 214.507665)"><g><path d="M 12.886719 -33.773438 C 15.972656 -33.773438 18.878906 -36.335938 19.199219 -39.5625 C 19.550781 -42.707031 17.222656 -45.265625 14.136719 -45.265625 C 10.910156 -45.265625 8 -42.707031 7.621094 -39.5625 C 7.332031 -36.335938 9.65625 -33.773438 12.886719 -33.773438 Z M 1.078125 0 L 11.722656 0 L 17.222656 -30.808594 L 6.546875 -30.808594 Z M 1.078125 0 "/></g></g></g><g fill="#737373" fill-opacity="1"><g transform="translate(237.181257, 214.507665)"><g><path d="M -3.082031 0 L 9.65625 0 L 17.6875 -8.640625 L 22.457031 0 L 34.558594 0 L 24.496094 -15.242188 L 40.203125 -30.574219 L 27.578125 -30.574219 L 19.492188 -21.816406 L 14.71875 -30.574219 L 2.558594 -30.574219 L 12.566406 -15.300781 Z M -3.082031 0 "/></g></g></g><g fill="#2ab09c" fill-opacity="1"><g transform="translate(89.507925, 232.8032)"><g><path d="M 2.429688 0 L 4.492188 0 L 4.96875 -3.003906 L 8.667969 -8.527344 L 6.453125 -8.527344 L 4.214844 -4.800781 L 4.191406 -4.800781 L 3.078125 -8.527344 L 0.910156 -8.527344 L 2.910156 -3.003906 Z M 2.429688 0 "/></g></g></g><g fill="#2ab09c" fill-opacity="1"><g transform="translate(99.60231, 232.8032)"><g><path d="M 4.441406 0.261719 C 7.449219 0.261719 9.640625 -2.144531 9.640625 -5.148438 C 9.640625 -7.375 8.140625 -8.789062 5.664062 -8.789062 C 2.644531 -8.789062 0.453125 -6.394531 0.453125 -3.375 C 0.453125 -1.148438 1.964844 0.261719 4.441406 0.261719 Z M 4.621094 -1.496094 C 3.304688 -1.496094 2.527344 -2.300781 2.527344 -3.605469 C 2.527344 -5.386719 3.6875 -7.039062 5.460938 -7.039062 C 6.789062 -7.039062 7.578125 -6.238281 7.578125 -4.921875 C 7.578125 -3.148438 6.40625 -1.496094 4.621094 -1.496094 Z M 4.621094 -1.496094 "/></g></g></g><g fill="#2ab09c" fill-opacity="1"><g transform="translate(111.588644, 232.8032)"><g><path d="M 3.722656 0.261719 C 6.082031 0.261719 7.578125 -0.875 7.902344 -2.921875 L 8.789062 -8.527344 L 6.742188 -8.527344 L 5.878906 -3.078125 C 5.722656 -2.058594 5.015625 -1.496094 3.941406 -1.496094 C 2.875 -1.496094 2.40625 -2.058594 2.5625 -3.054688 L 3.425781 -8.527344 L 1.378906 -8.527344 L 0.503906 -3.03125 C 0.15625 -0.933594 1.292969 0.261719 3.722656 0.261719 Z M 3.722656 0.261719 "/></g></g></g><g fill="#2ab09c" fill-opacity="1"><g transform="translate(122.281751, 232.8032)"><g><path d="M 6.296875 0.214844 C 6.910156 0.214844 7.554688 -0.0351562 8.035156 -0.441406 L 7.746094 -1.425781 C 7.554688 -1.246094 7.351562 -1.125 7.160156 -1.125 C 6.957031 -1.125 6.875 -1.28125 6.847656 -1.542969 L 6.707031 -2.585938 C 6.667969 -3.054688 6.515625 -3.414062 6.144531 -3.582031 L 6.144531 -3.59375 C 7.484375 -3.941406 8.320312 -4.96875 8.320312 -6.261719 C 8.320312 -7.710938 7.28125 -8.527344 5.425781 -8.527344 L 1.449219 -8.527344 L 0.0976562 0 L 2.144531 0 L 2.660156 -3.234375 L 3.964844 -3.234375 C 4.40625 -3.234375 4.65625 -2.910156 4.71875 -2.441406 L 4.886719 -1.113281 C 4.957031 -0.324219 5.4375 0.214844 6.296875 0.214844 Z M 2.875 -4.621094 L 3.257812 -7.015625 L 5.066406 -7.015625 C 5.84375 -7.015625 6.25 -6.65625 6.25 -6.058594 C 6.25 -5.183594 5.605469 -4.621094 4.671875 -4.621094 Z M 2.875 -4.621094 "/></g></g></g><g fill="#2ab09c" fill-opacity="1"><g transform="translate(133.010772, 232.8032)"><g/></g></g><g fill="#2ab09c" fill-opacity="1"><g transform="translate(137.561025, 232.8032)"><g><path d="M 4.441406 0.261719 C 7.449219 0.261719 9.640625 -2.144531 9.640625 -5.148438 C 9.640625 -7.375 8.140625 -8.789062 5.664062 -8.789062 C 2.644531 -8.789062 0.453125 -6.394531 0.453125 -3.375 C 0.453125 -1.148438 1.964844 0.261719 4.441406 0.261719 Z M 4.621094 -1.496094 C 3.304688 -1.496094 2.527344 -2.300781 2.527344 -3.605469 C 2.527344 -5.386719 3.6875 -7.039062 5.460938 -7.039062 C 6.789062 -7.039062 7.578125 -6.238281 7.578125 -4.921875 C 7.578125 -3.148438 6.40625 -1.496094 4.621094 -1.496094 Z M 4.621094 -1.496094 "/></g></g></g><g fill="#2ab09c" fill-opacity="1"><g transform="translate(149.547358, 232.8032)"><g><path d="M 0.0976562 0 L 2 0 L 2.96875 -6.144531 L 2.992188 -6.144531 L 5.402344 0 L 7.855469 0 L 9.207031 -8.527344 L 7.304688 -8.527344 L 6.324219 -2.382812 L 6.296875 -2.382812 L 3.902344 -8.527344 L 1.449219 -8.527344 Z M 0.0976562 0 "/></g></g></g><g fill="#2ab09c" fill-opacity="1"><g transform="translate(160.731412, 232.8032)"><g><path d="M 0.0976562 0 L 5.375 0 L 5.652344 -1.75 L 2.429688 -1.75 L 3.496094 -8.527344 L 1.449219 -8.527344 Z M 0.0976562 0 "/></g></g></g><g fill="#2ab09c" fill-opacity="1"><g transform="translate(169.029646, 232.8032)"><g><path d="M 0.0976562 0 L 2.144531 0 L 3.496094 -8.527344 L 1.449219 -8.527344 Z M 0.0976562 0 "/></g></g></g><g fill="#2ab09c" fill-opacity="1"><g transform="translate(174.501916, 232.8032)"><g><path d="M 0.0976562 0 L 2 0 L 2.96875 -6.144531 L 2.992188 -6.144531 L 5.402344 0 L 7.855469 0 L 9.207031 -8.527344 L 7.304688 -8.527344 L 6.324219 -2.382812 L 6.296875 -2.382812 L 3.902344 -8.527344 L 1.449219 -8.527344 Z M 0.0976562 0 "/></g></g></g><g fill="#2ab09c" fill-opacity="1"><g transform="translate(185.68597, 232.8032)"><g><path d="M 0.0976562 0 L 5.964844 0 L 6.214844 -1.640625 L 2.335938 -1.640625 L 2.644531 -3.652344 L 5.9375 -3.652344 L 6.167969 -5.089844 L 2.875 -5.089844 L 3.160156 -6.898438 L 6.933594 -6.898438 L 7.195312 -8.527344 L 1.449219 -8.527344 Z M 0.0976562 0 "/></g></g></g><g fill="#2ab09c" fill-opacity="1"><g transform="translate(194.642795, 232.8032)"><g/></g></g><g fill="#2ab09c" fill-opacity="1"><g transform="translate(199.193047, 232.8032)"><g><path d="M 2.109375 0 L 4.167969 0 L 5.234375 -6.777344 L 7.664062 -6.777344 L 7.9375 -8.527344 L 1.042969 -8.527344 L 0.753906 -6.777344 L 3.183594 -6.777344 Z M 2.109375 0 "/></g></g></g><g fill="#2ab09c" fill-opacity="1"><g transform="translate(208.700692, 232.8032)"><g><path d="M 2.480469 0 L 4.992188 0 L 9.257812 -8.527344 L 7.101562 -8.527344 L 4.035156 -1.890625 L 4.011719 -1.890625 L 3.042969 -8.527344 L 0.910156 -8.527344 Z M 2.480469 0 "/></g></g></g><g fill="#2ab09c" fill-opacity="1"><g transform="translate(219.393803, 232.8032)"><g/></g></g><g fill="#2ab09c" fill-opacity="1"><g transform="translate(223.944063, 232.8032)"><g><path d="M 3.664062 0.261719 C 5.820312 0.261719 7.460938 -0.8125 7.460938 -2.644531 C 7.460938 -3.84375 6.707031 -4.585938 5.042969 -5.015625 L 4.167969 -5.269531 C 3.363281 -5.496094 2.992188 -5.785156 2.992188 -6.25 C 2.992188 -6.835938 3.496094 -7.28125 4.273438 -7.28125 C 5.171875 -7.28125 5.675781 -6.71875 5.6875 -5.9375 L 7.542969 -6.347656 C 7.542969 -7.820312 6.273438 -8.789062 4.382812 -8.789062 C 2.429688 -8.789062 0.992188 -7.722656 0.992188 -5.9375 C 0.992188 -4.765625 1.675781 -4.070312 3.234375 -3.675781 L 4.132812 -3.414062 C 5.027344 -3.160156 5.460938 -2.851562 5.460938 -2.347656 C 5.460938 -1.675781 4.800781 -1.269531 3.855469 -1.269531 C 2.71875 -1.269531 2.035156 -1.929688 2.046875 -2.933594 L 0.144531 -2.621094 C 0.144531 -0.875 1.570312 0.261719 3.664062 0.261719 Z M 3.664062 0.261719 "/></g></g></g><g fill="#2ab09c" fill-opacity="1"><g transform="translate(233.930683, 232.8032)"><g><path d="M 4.441406 0.261719 C 7.449219 0.261719 9.640625 -2.144531 9.640625 -5.148438 C 9.640625 -7.375 8.140625 -8.789062 5.664062 -8.789062 C 2.644531 -8.789062 0.453125 -6.394531 0.453125 -3.375 C 0.453125 -1.148438 1.964844 0.261719 4.441406 0.261719 Z M 4.621094 -1.496094 C 3.304688 -1.496094 2.527344 -2.300781 2.527344 -3.605469 C 2.527344 -5.386719 3.6875 -7.039062 5.460938 -7.039062 C 6.789062 -7.039062 7.578125 -6.238281 7.578125 -4.921875 C 7.578125 -3.148438 6.40625 -1.496094 4.621094 -1.496094 Z M 4.621094 -1.496094 "/></g></g></g><g fill="#2ab09c" fill-opacity="1"><g transform="translate(245.917023, 232.8032)"><g><path d="M 3.722656 0.261719 C 6.082031 0.261719 7.578125 -0.875 7.902344 -2.921875 L 8.789062 -8.527344 L 6.742188 -8.527344 L 5.878906 -3.078125 C 5.722656 -2.058594 5.015625 -1.496094 3.941406 -1.496094 C 2.875 -1.496094 2.40625 -2.058594 2.5625 -3.054688 L 3.425781 -8.527344 L 1.378906 -8.527344 L 0.503906 -3.03125 C 0.15625 -0.933594 1.292969 0.261719 3.722656 0.261719 Z M 3.722656 0.261719 "/></g></g></g><g fill="#2ab09c" fill-opacity="1"><g transform="translate(256.610134, 232.8032)"><g><path d="M 6.296875 0.214844 C 6.910156 0.214844 7.554688 -0.0351562 8.035156 -0.441406 L 7.746094 -1.425781 C 7.554688 -1.246094 7.351562 -1.125 7.160156 -1.125 C 6.957031 -1.125 6.875 -1.28125 6.847656 -1.542969 L 6.707031 -2.585938 C 6.667969 -3.054688 6.515625 -3.414062 6.144531 -3.582031 L 6.144531 -3.59375 C 7.484375 -3.941406 8.320312 -4.96875 8.320312 -6.261719 C 8.320312 -7.710938 7.28125 -8.527344 5.425781 -8.527344 L 1.449219 -8.527344 L 0.0976562 0 L 2.144531 0 L 2.660156 -3.234375 L 3.964844 -3.234375 C 4.40625 -3.234375 4.65625 -2.910156 4.71875 -2.441406 L 4.886719 -1.113281 C 4.957031 -0.324219 5.4375 0.214844 6.296875 0.214844 Z M 2.875 -4.621094 L 3.257812 -7.015625 L 5.066406 -7.015625 C 5.84375 -7.015625 6.25 -6.65625 6.25 -6.058594 C 6.25 -5.183594 5.605469 -4.621094 4.671875 -4.621094 Z M 2.875 -4.621094 "/></g></g></g><g fill="#2ab09c" fill-opacity="1"><g transform="translate(267.339163, 232.8032)"><g><path d="M 4.371094 0.261719 C 6.550781 0.261719 8.382812 -1.171875 9.015625 -3.316406 L 7.148438 -3.628906 C 6.730469 -2.371094 5.699219 -1.507812 4.515625 -1.507812 C 3.269531 -1.507812 2.539062 -2.300781 2.539062 -3.628906 C 2.539062 -5.292969 3.53125 -7.039062 5.101562 -7.039062 C 6.128906 -7.039062 6.730469 -6.359375 6.824219 -5.234375 L 8.742188 -5.59375 C 8.691406 -7.542969 7.386719 -8.789062 5.269531 -8.789062 C 2.441406 -8.789062 0.480469 -6.308594 0.480469 -3.449219 C 0.480469 -1.160156 1.953125 0.261719 4.371094 0.261719 Z M 4.371094 0.261719 "/></g></g></g><g fill="#2ab09c" fill-opacity="1"><g transform="translate(278.774683, 232.8032)"><g><path d="M 0.0976562 0 L 5.964844 0 L 6.214844 -1.640625 L 2.335938 -1.640625 L 2.644531 -3.652344 L 5.9375 -3.652344 L 6.167969 -5.089844 L 2.875 -5.089844 L 3.160156 -6.898438 L 6.933594 -6.898438 L 7.195312 -8.527344 L 1.449219 -8.527344 Z M 0.0976562 0 "/></g></g></g></svg>