<svg xmlns="http://www.w3.org/2000/svg" xmlns:xlink="http://www.w3.org/1999/xlink" width="425" zoomAndPan="magnify" viewBox="0 0 318.75 113.249998" height="151" preserveAspectRatio="xMidYMid meet" version="1.0"><defs><g/><clipPath id="a3ec0d884c"><path d="M 1 17 L 86.605469 17 L 86.605469 100 L 1 100 Z M 1 17 " clip-rule="nonzero"/></clipPath><clipPath id="d3d6e1dff7"><path d="M 84.289062 52.199219 C 82.015625 51.511719 78.015625 50.746094 73.179688 50.449219 C 67.957031 40.667969 57.449219 38.59375 54.183594 38.179688 L 59.394531 33.242188 C 59.578125 33.316406 59.753906 33.390625 59.941406 33.453125 C 64.121094 34.820312 68.617188 32.539062 69.984375 28.359375 C 71.351562 24.179688 69.070312 19.683594 64.894531 18.320312 C 60.714844 16.953125 56.21875 19.230469 54.851562 23.410156 C 54.289062 25.136719 54.355469 26.914062 54.910156 28.503906 L 44.796875 38.082031 L 44.203125 38.082031 L 44.203125 38.085938 L 41.011719 38.085938 L 34.546875 31.34375 C 35.5 28.011719 33.65625 24.488281 30.332031 23.402344 C 26.929688 22.289062 23.269531 24.144531 22.15625 27.550781 C 21.042969 30.953125 22.898438 34.613281 26.300781 35.730469 C 27.488281 36.117188 28.703125 36.136719 29.835938 35.863281 L 32.398438 38.53125 C 27.984375 39.453125 19.886719 42.214844 15.496094 50.390625 C 10.152344 50.625 5.695312 51.457031 3.246094 52.199219 C 2.859375 52.21875 1.183594 52.441406 1.058594 54.921875 C 0.9375 57.1875 1.398438 58.488281 2.554688 59.148438 C 3.066406 59.441406 4.101562 61.257812 4.683594 64.878906 C 5.71875 71.296875 8.117188 75.679688 11.835938 77.996094 C 12.785156 90.992188 19.308594 100.386719 44.277344 99.65625 L 44.371094 99.652344 C 69.867188 100.398438 76.128906 90.585938 76.863281 77.164062 C 79.921875 74.699219 81.925781 70.59375 82.847656 64.878906 C 83.429688 61.253906 84.460938 59.441406 84.976562 59.148438 C 86.132812 58.488281 86.59375 57.1875 86.476562 54.921875 C 86.351562 52.441406 84.675781 52.21875 84.289062 52.199219 Z M 27.238281 47.101562 C 30.921875 43.011719 35.9375 42.730469 36.769531 42.632812 L 44.574219 42.632812 L 44.574219 42.628906 L 52.382812 42.628906 C 53.214844 42.730469 58.230469 43.007812 61.910156 47.101562 C 62.773438 48.0625 63.59375 49.21875 64.332031 50.507812 C 61.941406 50.699219 59.660156 51.035156 57.523438 51.511719 C 48.15625 53.617188 44.363281 54.207031 43.765625 54.292969 C 43.164062 54.210938 39.390625 53.621094 30.007812 51.511719 C 28.332031 51.136719 26.566406 50.851562 24.730469 50.652344 C 25.5 49.308594 26.34375 48.097656 27.238281 47.101562 Z M 19.273438 73.878906 C 16.253906 73.878906 14.253906 72.839844 12.800781 70.5 C 11.355469 68.171875 10.871094 65.195312 10.664062 63.910156 C 10.21875 61.160156 9.527344 58.90625 8.597656 57.191406 C 10.699219 56.832031 14.1875 56.375 18.429688 56.375 C 22.148438 56.375 25.597656 56.726562 28.683594 57.421875 C 31.46875 58.046875 34 58.59375 36.230469 59.050781 C 35.683594 59.886719 35.320312 60.839844 35.171875 61.8125 C 33.554688 66.613281 32.023438 69.367188 30.0625 71.015625 C 27.996094 72.75 24.863281 73.628906 19.914062 73.863281 C 19.699219 73.878906 19.484375 73.878906 19.273438 73.878906 Z M 63.691406 85.09375 C 61.144531 87.972656 55.25 89.492188 46.632812 89.492188 C 46.632812 89.492188 46.628906 89.492188 46.628906 89.492188 C 45.964844 89.492188 45.277344 89.480469 44.578125 89.464844 C 43.882812 89.484375 43.191406 89.496094 42.523438 89.496094 C 33.90625 89.496094 28.007812 87.972656 25.464844 85.09375 C 24.296875 83.773438 23.355469 81.941406 22.640625 79.742188 C 32.898438 78.746094 37.386719 74.546875 41.121094 63.105469 L 41.164062 62.96875 L 41.144531 62.824219 C 41.144531 62.824219 41.132812 62.53125 41.386719 62.246094 C 41.660156 61.9375 42.296875 61.574219 43.765625 61.574219 C 45.210938 61.574219 45.847656 61.929688 46.125 62.226562 C 46.402344 62.519531 46.386719 62.824219 46.386719 62.824219 L 46.371094 62.96875 L 46.417969 63.105469 C 50.335938 75.113281 55.085938 79.144531 66.472656 79.867188 C 65.761719 82.011719 64.835938 83.796875 63.691406 85.09375 Z M 76.871094 63.929688 C 76.664062 65.199219 76.179688 68.175781 74.734375 70.5 C 73.28125 72.835938 71.28125 73.878906 68.261719 73.878906 C 68.054688 73.878906 67.839844 73.875 67.625 73.863281 C 62.671875 73.628906 59.542969 72.75 57.476562 71.019531 C 55.515625 69.371094 53.988281 66.617188 52.371094 61.816406 C 52.21875 60.839844 51.851562 59.890625 51.308594 59.054688 C 53.535156 58.597656 56.070312 58.050781 58.855469 57.425781 C 61.941406 56.730469 65.390625 56.378906 69.109375 56.378906 C 73.355469 56.378906 76.839844 56.832031 78.941406 57.195312 C 78.011719 58.910156 77.316406 61.167969 76.871094 63.929688 Z M 76.871094 63.929688 " clip-rule="nonzero"/></clipPath><linearGradient x1="3176.292169" gradientTransform="matrix(0.0224917, 0, 0, 0.0224962, 1.039216, 17.920802)" y1="-394.862316" x2="683.522804" gradientUnits="userSpaceOnUse" y2="4051.984704" id="9bbcf4bba0"><stop stop-opacity="1" stop-color="rgb(20.385742%, 70.214844%, 53.901672%)" offset="0"/><stop stop-opacity="1" stop-color="rgb(20.28656%, 70.19043%, 54.064941%)" offset="0.015625"/><stop stop-opacity="1" stop-color="rgb(20.088196%, 70.140076%, 54.393005%)" offset="0.03125"/><stop stop-opacity="1" stop-color="rgb(19.889832%, 70.089722%, 54.719543%)" offset="0.046875"/><stop stop-opacity="1" stop-color="rgb(19.691467%, 70.040894%, 55.046082%)" offset="0.0625"/><stop stop-opacity="1" stop-color="rgb(19.493103%, 69.99054%, 55.37262%)" offset="0.078125"/><stop stop-opacity="1" stop-color="rgb(19.294739%, 69.940186%, 55.700684%)" offset="0.09375"/><stop stop-opacity="1" stop-color="rgb(19.096375%, 69.891357%, 56.027222%)" offset="0.109375"/><stop stop-opacity="1" stop-color="rgb(18.89801%, 69.841003%, 56.35376%)" offset="0.125"/><stop stop-opacity="1" stop-color="rgb(18.699646%, 69.792175%, 56.680298%)" offset="0.140625"/><stop stop-opacity="1" stop-color="rgb(18.501282%, 69.741821%, 57.006836%)" offset="0.15625"/><stop stop-opacity="1" stop-color="rgb(18.302917%, 69.691467%, 57.3349%)" offset="0.171875"/><stop stop-opacity="1" stop-color="rgb(18.104553%, 69.642639%, 57.661438%)" offset="0.1875"/><stop stop-opacity="1" stop-color="rgb(17.906189%, 69.592285%, 57.987976%)" offset="0.203125"/><stop stop-opacity="1" stop-color="rgb(17.709351%, 69.541931%, 58.314514%)" offset="0.21875"/><stop stop-opacity="1" stop-color="rgb(17.510986%, 69.493103%, 58.642578%)" offset="0.234375"/><stop stop-opacity="1" stop-color="rgb(17.312622%, 69.442749%, 58.969116%)" offset="0.25"/><stop stop-opacity="1" stop-color="rgb(17.114258%, 69.393921%, 59.295654%)" offset="0.265625"/><stop stop-opacity="1" stop-color="rgb(16.915894%, 69.343567%, 59.622192%)" offset="0.28125"/><stop stop-opacity="1" stop-color="rgb(16.717529%, 69.293213%, 59.94873%)" offset="0.296875"/><stop stop-opacity="1" stop-color="rgb(16.519165%, 69.244385%, 60.276794%)" offset="0.3125"/><stop stop-opacity="1" stop-color="rgb(16.320801%, 69.194031%, 60.603333%)" offset="0.328125"/><stop stop-opacity="1" stop-color="rgb(16.122437%, 69.145203%, 60.929871%)" offset="0.34375"/><stop stop-opacity="1" stop-color="rgb(15.924072%, 69.094849%, 61.256409%)" offset="0.359375"/><stop stop-opacity="1" stop-color="rgb(15.725708%, 69.044495%, 61.584473%)" offset="0.365287"/><stop stop-opacity="1" stop-color="rgb(15.626526%, 69.020081%, 61.747742%)" offset="0.375"/><stop stop-opacity="1" stop-color="rgb(15.527344%, 68.995667%, 61.911011%)" offset="0.390625"/><stop stop-opacity="1" stop-color="rgb(15.328979%, 68.945312%, 62.237549%)" offset="0.40625"/><stop stop-opacity="1" stop-color="rgb(15.130615%, 68.894958%, 62.564087%)" offset="0.421875"/><stop stop-opacity="1" stop-color="rgb(14.932251%, 68.84613%, 62.890625%)" offset="0.4375"/><stop stop-opacity="1" stop-color="rgb(14.733887%, 68.795776%, 63.218689%)" offset="0.453125"/><stop stop-opacity="1" stop-color="rgb(14.535522%, 68.746948%, 63.545227%)" offset="0.46875"/><stop stop-opacity="1" stop-color="rgb(14.337158%, 68.696594%, 63.871765%)" offset="0.484375"/><stop stop-opacity="1" stop-color="rgb(14.138794%, 68.64624%, 64.198303%)" offset="0.5"/><stop stop-opacity="1" stop-color="rgb(13.94043%, 68.597412%, 64.526367%)" offset="0.515625"/><stop stop-opacity="1" stop-color="rgb(13.742065%, 68.547058%, 64.852905%)" offset="0.53125"/><stop stop-opacity="1" stop-color="rgb(13.543701%, 68.496704%, 65.179443%)" offset="0.546875"/><stop stop-opacity="1" stop-color="rgb(13.345337%, 68.447876%, 65.505981%)" offset="0.5625"/><stop stop-opacity="1" stop-color="rgb(13.146973%, 68.397522%, 65.83252%)" offset="0.578125"/><stop stop-opacity="1" stop-color="rgb(12.948608%, 68.348694%, 66.160583%)" offset="0.59375"/><stop stop-opacity="1" stop-color="rgb(12.750244%, 68.29834%, 66.487122%)" offset="0.609375"/><stop stop-opacity="1" stop-color="rgb(12.55188%, 68.247986%, 66.81366%)" offset="0.625"/><stop stop-opacity="1" stop-color="rgb(12.353516%, 68.199158%, 67.140198%)" offset="0.634713"/><stop stop-opacity="1" stop-color="rgb(12.254333%, 68.174744%, 67.304993%)" offset="0.640625"/><stop stop-opacity="1" stop-color="rgb(12.155151%, 68.148804%, 67.468262%)" offset="0.65625"/><stop stop-opacity="1" stop-color="rgb(11.956787%, 68.099976%, 67.7948%)" offset="0.671875"/><stop stop-opacity="1" stop-color="rgb(11.758423%, 68.049622%, 68.121338%)" offset="0.6875"/><stop stop-opacity="1" stop-color="rgb(11.560059%, 67.999268%, 68.447876%)" offset="0.703125"/><stop stop-opacity="1" stop-color="rgb(11.361694%, 67.950439%, 68.774414%)" offset="0.71875"/><stop stop-opacity="1" stop-color="rgb(11.16333%, 67.900085%, 69.102478%)" offset="0.734375"/><stop stop-opacity="1" stop-color="rgb(10.964966%, 67.849731%, 69.429016%)" offset="0.75"/><stop stop-opacity="1" stop-color="rgb(10.766602%, 67.800903%, 69.755554%)" offset="0.765625"/><stop stop-opacity="1" stop-color="rgb(10.568237%, 67.750549%, 70.082092%)" offset="0.78125"/><stop stop-opacity="1" stop-color="rgb(10.369873%, 67.701721%, 70.410156%)" offset="0.796875"/><stop stop-opacity="1" stop-color="rgb(10.171509%, 67.651367%, 70.736694%)" offset="0.8125"/><stop stop-opacity="1" stop-color="rgb(9.973145%, 67.601013%, 71.063232%)" offset="0.828125"/><stop stop-opacity="1" stop-color="rgb(9.77478%, 67.552185%, 71.389771%)" offset="0.84375"/><stop stop-opacity="1" stop-color="rgb(9.576416%, 67.501831%, 71.716309%)" offset="0.859375"/><stop stop-opacity="1" stop-color="rgb(9.378052%, 67.451477%, 72.044373%)" offset="0.875"/><stop stop-opacity="1" stop-color="rgb(9.179688%, 67.402649%, 72.370911%)" offset="0.890625"/><stop stop-opacity="1" stop-color="rgb(8.981323%, 67.352295%, 72.697449%)" offset="0.90625"/><stop stop-opacity="1" stop-color="rgb(8.782959%, 67.303467%, 73.023987%)" offset="0.921875"/><stop stop-opacity="1" stop-color="rgb(8.584595%, 67.253113%, 73.352051%)" offset="0.9375"/><stop stop-opacity="1" stop-color="rgb(8.38623%, 67.202759%, 73.678589%)" offset="0.953125"/><stop stop-opacity="1" stop-color="rgb(8.187866%, 67.153931%, 74.005127%)" offset="0.96875"/><stop stop-opacity="1" stop-color="rgb(7.989502%, 67.103577%, 74.331665%)" offset="0.984375"/><stop stop-opacity="1" stop-color="rgb(7.791138%, 67.053223%, 74.658203%)" offset="1"/></linearGradient><clipPath id="94a9380c75"><path d="M 34 78 L 53 78 L 53 85 L 34 85 Z M 34 78 " clip-rule="nonzero"/></clipPath><clipPath id="cb284afc10"><path d="M 48.378906 79.671875 C 41.640625 83.238281 34.136719 81.757812 34.136719 81.757812 C 35.683594 82.417969 37.113281 83.996094 44.699219 84.726562 C 52.285156 85.457031 55.113281 76.105469 48.378906 79.671875 Z M 48.378906 79.671875 " clip-rule="nonzero"/></clipPath><linearGradient x1="2096.738659" gradientTransform="matrix(0.0224917, 0, 0, 0.0224962, 1.039216, 17.920802)" y1="2414.10204" x2="1696.421045" gradientUnits="userSpaceOnUse" y2="3128.227782" id="fe02cc10fa"><stop stop-opacity="1" stop-color="rgb(12.969971%, 68.354797%, 66.123962%)" offset="0"/><stop stop-opacity="1" stop-color="rgb(12.905884%, 68.338013%, 66.227722%)" offset="0.0625"/><stop stop-opacity="1" stop-color="rgb(12.779236%, 68.305969%, 66.438293%)" offset="0.125"/><stop stop-opacity="1" stop-color="rgb(12.651062%, 68.273926%, 66.648865%)" offset="0.1875"/><stop stop-opacity="1" stop-color="rgb(12.524414%, 68.241882%, 66.85791%)" offset="0.25"/><stop stop-opacity="1" stop-color="rgb(12.39624%, 68.209839%, 67.068481%)" offset="0.3125"/><stop stop-opacity="1" stop-color="rgb(12.269592%, 68.177795%, 67.279053%)" offset="0.375"/><stop stop-opacity="1" stop-color="rgb(12.141418%, 68.145752%, 67.488098%)" offset="0.4375"/><stop stop-opacity="1" stop-color="rgb(12.014771%, 68.113708%, 67.698669%)" offset="0.443032"/><stop stop-opacity="1" stop-color="rgb(11.950684%, 68.09845%, 67.803955%)" offset="0.5"/><stop stop-opacity="1" stop-color="rgb(11.886597%, 68.081665%, 67.907715%)" offset="0.556968"/><stop stop-opacity="1" stop-color="rgb(11.824036%, 68.066406%, 68.013%)" offset="0.5625"/><stop stop-opacity="1" stop-color="rgb(11.759949%, 68.049622%, 68.118286%)" offset="0.625"/><stop stop-opacity="1" stop-color="rgb(11.631775%, 68.017578%, 68.328857%)" offset="0.6875"/><stop stop-opacity="1" stop-color="rgb(11.505127%, 67.985535%, 68.537903%)" offset="0.75"/><stop stop-opacity="1" stop-color="rgb(11.376953%, 67.953491%, 68.748474%)" offset="0.8125"/><stop stop-opacity="1" stop-color="rgb(11.250305%, 67.921448%, 68.95752%)" offset="0.875"/><stop stop-opacity="1" stop-color="rgb(11.122131%, 67.889404%, 69.168091%)" offset="0.9375"/><stop stop-opacity="1" stop-color="rgb(10.995483%, 67.857361%, 69.378662%)" offset="1"/></linearGradient></defs><g clip-path="url(#a3ec0d884c)"><g clip-path="url(#d3d6e1dff7)"><path fill="url(#9bbcf4bba0)" d="M 0.9375 16.953125 L 0.9375 100.398438 L 86.59375 100.398438 L 86.59375 16.953125 Z M 0.9375 16.953125 " fill-rule="nonzero"/></g></g><g clip-path="url(#94a9380c75)"><g clip-path="url(#cb284afc10)"><path fill="url(#fe02cc10fa)" d="M 34.136719 76.105469 L 34.136719 85.457031 L 55.113281 85.457031 L 55.113281 76.105469 Z M 34.136719 76.105469 " fill-rule="nonzero"/></g></g><g fill="#ffffff" fill-opacity="1"><g transform="translate(87.259243, 76.536128)"><g><path d="M 35.226562 -42.246094 L 5.578125 -42.246094 L 3.957031 -33.261719 L 13.726562 -33.261719 L 7.859375 0 L 18.058594 0 L 23.925781 -33.261719 L 33.605469 -33.261719 Z M 35.226562 -42.246094 "/></g></g></g><g fill="#ffffff" fill-opacity="1"><g transform="translate(117.132146, 76.536128)"><g><path d="M 36.582031 -42.246094 L 20.804688 -11.875 L 15.75 -42.246094 L 5.027344 -42.246094 L 13.089844 0 L 24.621094 0 L 47.765625 -42.246094 Z M 36.582031 -42.246094 "/></g></g></g><g fill="#ffffff" fill-opacity="1"><g transform="translate(159.08266, 76.536128)"><g><path d="M 33.722656 -33.261719 L 35.339844 -42.246094 L 9.476562 -42.246094 L 2.023438 0 L 12.308594 0 L 15.285156 -16.703125 L 28.695312 -16.703125 L 30.253906 -25.574219 L 16.875 -25.574219 L 18.234375 -33.261719 Z M 33.722656 -33.261719 "/></g></g></g><g fill="#ffffff" fill-opacity="1"><g transform="translate(190.024631, 76.536128)"><g><path d="M 1.070312 0 L 11.066406 0 L 18.925781 -44.386719 L 8.929688 -44.386719 Z M 1.070312 0 "/></g></g></g><g fill="#ffffff" fill-opacity="1"><g transform="translate(206.172967, 76.536128)"><g><path d="M 12.800781 -33.550781 C 15.863281 -33.550781 18.753906 -36.09375 19.070312 -39.300781 C 19.417969 -42.421875 17.105469 -44.964844 14.042969 -44.964844 C 10.835938 -44.964844 7.945312 -42.421875 7.570312 -39.300781 C 7.28125 -36.09375 9.59375 -33.550781 12.800781 -33.550781 Z M 1.070312 0 L 11.644531 0 L 17.105469 -30.601562 L 6.5 -30.601562 Z M 1.070312 0 "/></g></g></g><g fill="#ffffff" fill-opacity="1"><g transform="translate(222.985866, 76.536128)"><g><path d="M -3.0625 0 L 9.59375 0 L 17.570312 -8.582031 L 22.308594 0 L 34.328125 0 L 24.332031 -15.140625 L 39.933594 -30.371094 L 27.394531 -30.371094 L 19.359375 -21.671875 L 14.621094 -30.371094 L 2.542969 -30.371094 L 12.484375 -15.199219 Z M -3.0625 0 "/></g></g></g><g fill="#d5d5d5" fill-opacity="1"><g transform="translate(92.615709, 92.657156)"><g><path d="M 2.011719 0 L 3.714844 0 L 4.109375 -2.484375 L 7.167969 -7.050781 L 5.335938 -7.050781 L 3.484375 -3.96875 L 3.464844 -3.96875 L 2.542969 -7.050781 L 0.753906 -7.050781 L 2.40625 -2.484375 Z M 2.011719 0 "/></g></g></g><g fill="#d5d5d5" fill-opacity="1"><g transform="translate(100.960113, 92.657156)"><g><path d="M 3.671875 0.21875 C 6.160156 0.21875 7.972656 -1.773438 7.972656 -4.257812 C 7.972656 -6.097656 6.734375 -7.269531 4.683594 -7.269531 C 2.1875 -7.269531 0.375 -5.289062 0.375 -2.792969 C 0.375 -0.949219 1.625 0.21875 3.671875 0.21875 Z M 3.820312 -1.238281 C 2.734375 -1.238281 2.089844 -1.902344 2.089844 -2.980469 C 2.089844 -4.457031 3.050781 -5.824219 4.515625 -5.824219 C 5.613281 -5.824219 6.269531 -5.160156 6.269531 -4.070312 C 6.269531 -2.605469 5.296875 -1.238281 3.820312 -1.238281 Z M 3.820312 -1.238281 "/></g></g></g><g fill="#d5d5d5" fill-opacity="1"><g transform="translate(110.867999, 92.657156)"><g><path d="M 3.078125 0.21875 C 5.03125 0.21875 6.269531 -0.722656 6.535156 -2.417969 L 7.269531 -7.050781 L 5.574219 -7.050781 L 4.863281 -2.542969 C 4.734375 -1.703125 4.148438 -1.238281 3.257812 -1.238281 C 2.375 -1.238281 1.992188 -1.703125 2.117188 -2.523438 L 2.832031 -7.050781 L 1.140625 -7.050781 L 0.414062 -2.503906 C 0.128906 -0.773438 1.070312 0.21875 3.078125 0.21875 Z M 3.078125 0.21875 "/></g></g></g><g fill="#d5d5d5" fill-opacity="1"><g transform="translate(119.707172, 92.657156)"><g><path d="M 5.207031 0.179688 C 5.714844 0.179688 6.25 -0.03125 6.644531 -0.367188 L 6.40625 -1.179688 C 6.25 -1.03125 6.078125 -0.929688 5.921875 -0.929688 C 5.753906 -0.929688 5.683594 -1.058594 5.664062 -1.277344 L 5.546875 -2.140625 C 5.515625 -2.523438 5.386719 -2.820312 5.078125 -2.960938 L 5.078125 -2.96875 C 6.1875 -3.257812 6.882812 -4.109375 6.882812 -5.179688 C 6.882812 -6.375 6.019531 -7.050781 4.484375 -7.050781 L 1.199219 -7.050781 L 0.078125 0 L 1.773438 0 L 2.199219 -2.671875 L 3.277344 -2.671875 C 3.644531 -2.671875 3.851562 -2.40625 3.902344 -2.019531 L 4.039062 -0.921875 C 4.097656 -0.265625 4.496094 0.179688 5.207031 0.179688 Z M 2.375 -3.820312 L 2.691406 -5.800781 L 4.1875 -5.800781 C 4.832031 -5.800781 5.167969 -5.503906 5.167969 -5.011719 C 5.167969 -4.289062 4.632812 -3.820312 3.863281 -3.820312 Z M 2.375 -3.820312 "/></g></g></g><g fill="#d5d5d5" fill-opacity="1"><g transform="translate(128.576031, 92.657156)"><g/></g></g><g fill="#d5d5d5" fill-opacity="1"><g transform="translate(132.338831, 92.657156)"><g><path d="M 3.671875 0.21875 C 6.160156 0.21875 7.972656 -1.773438 7.972656 -4.257812 C 7.972656 -6.097656 6.734375 -7.269531 4.683594 -7.269531 C 2.1875 -7.269531 0.375 -5.289062 0.375 -2.792969 C 0.375 -0.949219 1.625 0.21875 3.671875 0.21875 Z M 3.820312 -1.238281 C 2.734375 -1.238281 2.089844 -1.902344 2.089844 -2.980469 C 2.089844 -4.457031 3.050781 -5.824219 4.515625 -5.824219 C 5.613281 -5.824219 6.269531 -5.160156 6.269531 -4.070312 C 6.269531 -2.605469 5.296875 -1.238281 3.820312 -1.238281 Z M 3.820312 -1.238281 "/></g></g></g><g fill="#d5d5d5" fill-opacity="1"><g transform="translate(142.246716, 92.657156)"><g><path d="M 0.078125 0 L 1.652344 0 L 2.457031 -5.078125 L 2.476562 -5.078125 L 4.464844 0 L 6.496094 0 L 7.613281 -7.050781 L 6.039062 -7.050781 L 5.226562 -1.96875 L 5.207031 -1.96875 L 3.226562 -7.050781 L 1.199219 -7.050781 Z M 0.078125 0 "/></g></g></g><g fill="#d5d5d5" fill-opacity="1"><g transform="translate(151.491609, 92.657156)"><g><path d="M 0.078125 0 L 4.445312 0 L 4.671875 -1.445312 L 2.011719 -1.445312 L 2.890625 -7.050781 L 1.199219 -7.050781 Z M 0.078125 0 "/></g></g></g><g fill="#d5d5d5" fill-opacity="1"><g transform="translate(158.351691, 92.657156)"><g><path d="M 0.078125 0 L 1.773438 0 L 2.890625 -7.050781 L 1.199219 -7.050781 Z M 0.078125 0 "/></g></g></g><g fill="#d5d5d5" fill-opacity="1"><g transform="translate(162.87644, 92.657156)"><g><path d="M 0.078125 0 L 1.652344 0 L 2.457031 -5.078125 L 2.476562 -5.078125 L 4.464844 0 L 6.496094 0 L 7.613281 -7.050781 L 6.039062 -7.050781 L 5.226562 -1.96875 L 5.207031 -1.96875 L 3.226562 -7.050781 L 1.199219 -7.050781 Z M 0.078125 0 "/></g></g></g><g fill="#d5d5d5" fill-opacity="1"><g transform="translate(172.121333, 92.657156)"><g><path d="M 0.078125 0 L 4.929688 0 L 5.140625 -1.355469 L 1.929688 -1.355469 L 2.1875 -3.019531 L 4.910156 -3.019531 L 5.097656 -4.207031 L 2.375 -4.207031 L 2.613281 -5.703125 L 5.734375 -5.703125 L 5.949219 -7.050781 L 1.199219 -7.050781 Z M 0.078125 0 "/></g></g></g><g fill="#d5d5d5" fill-opacity="1"><g transform="translate(179.525662, 92.657156)"><g/></g></g><g fill="#d5d5d5" fill-opacity="1"><g transform="translate(183.288462, 92.657156)"><g><path d="M 1.742188 0 L 3.445312 0 L 4.328125 -5.605469 L 6.335938 -5.605469 L 6.566406 -7.050781 L 0.863281 -7.050781 L 0.625 -5.605469 L 2.632812 -5.605469 Z M 1.742188 0 "/></g></g></g><g fill="#d5d5d5" fill-opacity="1"><g transform="translate(191.147982, 92.657156)"><g><path d="M 2.050781 0 L 4.128906 0 L 7.652344 -7.050781 L 5.871094 -7.050781 L 3.335938 -1.566406 L 3.316406 -1.566406 L 2.515625 -7.050781 L 0.753906 -7.050781 Z M 2.050781 0 "/></g></g></g><g fill="#d5d5d5" fill-opacity="1"><g transform="translate(199.987156, 92.657156)"><g/></g></g><g fill="#d5d5d5" fill-opacity="1"><g transform="translate(203.749957, 92.657156)"><g><path d="M 3.03125 0.21875 C 4.8125 0.21875 6.167969 -0.671875 6.167969 -2.1875 C 6.167969 -3.179688 5.546875 -3.792969 4.167969 -4.148438 L 3.445312 -4.355469 C 2.78125 -4.546875 2.476562 -4.78125 2.476562 -5.167969 C 2.476562 -5.652344 2.890625 -6.019531 3.535156 -6.019531 C 4.277344 -6.019531 4.695312 -5.554688 4.703125 -4.910156 L 6.238281 -5.246094 C 6.238281 -6.464844 5.1875 -7.269531 3.625 -7.269531 C 2.011719 -7.269531 0.820312 -6.386719 0.820312 -4.910156 C 0.820312 -3.941406 1.386719 -3.367188 2.671875 -3.039062 L 3.417969 -2.820312 C 4.160156 -2.613281 4.515625 -2.355469 4.515625 -1.941406 C 4.515625 -1.386719 3.96875 -1.050781 3.1875 -1.050781 C 2.246094 -1.050781 1.683594 -1.59375 1.691406 -2.425781 L 0.117188 -2.167969 C 0.117188 -0.722656 1.296875 0.21875 3.03125 0.21875 Z M 3.03125 0.21875 "/></g></g></g><g fill="#d5d5d5" fill-opacity="1"><g transform="translate(212.005298, 92.657156)"><g><path d="M 3.671875 0.21875 C 6.160156 0.21875 7.972656 -1.773438 7.972656 -4.257812 C 7.972656 -6.097656 6.734375 -7.269531 4.683594 -7.269531 C 2.1875 -7.269531 0.375 -5.289062 0.375 -2.792969 C 0.375 -0.949219 1.625 0.21875 3.671875 0.21875 Z M 3.820312 -1.238281 C 2.734375 -1.238281 2.089844 -1.902344 2.089844 -2.980469 C 2.089844 -4.457031 3.050781 -5.824219 4.515625 -5.824219 C 5.613281 -5.824219 6.269531 -5.160156 6.269531 -4.070312 C 6.269531 -2.605469 5.296875 -1.238281 3.820312 -1.238281 Z M 3.820312 -1.238281 "/></g></g></g><g fill="#d5d5d5" fill-opacity="1"><g transform="translate(221.913185, 92.657156)"><g><path d="M 3.078125 0.21875 C 5.03125 0.21875 6.269531 -0.722656 6.535156 -2.417969 L 7.269531 -7.050781 L 5.574219 -7.050781 L 4.863281 -2.542969 C 4.734375 -1.703125 4.148438 -1.238281 3.257812 -1.238281 C 2.375 -1.238281 1.992188 -1.703125 2.117188 -2.523438 L 2.832031 -7.050781 L 1.140625 -7.050781 L 0.414062 -2.503906 C 0.128906 -0.773438 1.070312 0.21875 3.078125 0.21875 Z M 3.078125 0.21875 "/></g></g></g><g fill="#d5d5d5" fill-opacity="1"><g transform="translate(230.75236, 92.657156)"><g><path d="M 5.207031 0.179688 C 5.714844 0.179688 6.25 -0.03125 6.644531 -0.367188 L 6.40625 -1.179688 C 6.25 -1.03125 6.078125 -0.929688 5.921875 -0.929688 C 5.753906 -0.929688 5.683594 -1.058594 5.664062 -1.277344 L 5.546875 -2.140625 C 5.515625 -2.523438 5.386719 -2.820312 5.078125 -2.960938 L 5.078125 -2.96875 C 6.1875 -3.257812 6.882812 -4.109375 6.882812 -5.179688 C 6.882812 -6.375 6.019531 -7.050781 4.484375 -7.050781 L 1.199219 -7.050781 L 0.078125 0 L 1.773438 0 L 2.199219 -2.671875 L 3.277344 -2.671875 C 3.644531 -2.671875 3.851562 -2.40625 3.902344 -2.019531 L 4.039062 -0.921875 C 4.097656 -0.265625 4.496094 0.179688 5.207031 0.179688 Z M 2.375 -3.820312 L 2.691406 -5.800781 L 4.1875 -5.800781 C 4.832031 -5.800781 5.167969 -5.503906 5.167969 -5.011719 C 5.167969 -4.289062 4.632812 -3.820312 3.863281 -3.820312 Z M 2.375 -3.820312 "/></g></g></g><g fill="#d5d5d5" fill-opacity="1"><g transform="translate(239.621218, 92.657156)"><g><path d="M 3.613281 0.21875 C 5.417969 0.21875 6.929688 -0.96875 7.457031 -2.742188 L 5.910156 -3 C 5.566406 -1.960938 4.714844 -1.246094 3.734375 -1.246094 C 2.703125 -1.246094 2.097656 -1.902344 2.097656 -3 C 2.097656 -4.375 2.921875 -5.824219 4.21875 -5.824219 C 5.070312 -5.824219 5.566406 -5.257812 5.644531 -4.328125 L 7.226562 -4.625 C 7.1875 -6.238281 6.109375 -7.269531 4.355469 -7.269531 C 2.019531 -7.269531 0.394531 -5.21875 0.394531 -2.851562 C 0.394531 -0.960938 1.613281 0.21875 3.613281 0.21875 Z M 3.613281 0.21875 "/></g></g></g><g fill="#d5d5d5" fill-opacity="1"><g transform="translate(249.07391, 92.657156)"><g><path d="M 0.078125 0 L 4.929688 0 L 5.140625 -1.355469 L 1.929688 -1.355469 L 2.1875 -3.019531 L 4.910156 -3.019531 L 5.097656 -4.207031 L 2.375 -4.207031 L 2.613281 -5.703125 L 5.734375 -5.703125 L 5.949219 -7.050781 L 1.199219 -7.050781 Z M 0.078125 0 "/></g></g></g></svg>